<?xml version="1.0" standalone="no"?>
<!DOCTYPE svg PUBLIC "-//W3C//DTD SVG 20010904//EN"
 "http://www.w3.org/TR/2001/REC-SVG-20010904/DTD/svg10.dtd">
<svg version="1.0" xmlns="http://www.w3.org/2000/svg"
 width="512.000000pt" height="512.000000pt" viewBox="0 0 512.000000 512.000000"
 preserveAspectRatio="xMidYMid meet">
<metadata>
Created by potrace 1.11, written by Peter Selinger 2001-2013
</metadata>
<g transform="translate(0.000000,512.000000) scale(0.100000,-0.100000)"
fill="#000000" stroke="none">
<path d="M756 5109 c-36 -10 -67 -43 -75 -81 -4 -18 -7 -139 -6 -268 1 -251 4
-266 52 -298 25 -16 80 -17 753 -19 399 -1 730 -2 736 -2 8 -1 11 -517 11
-1886 l0 -1885 -735 0 c-672 0 -736 -1 -763 -17 -50 -30 -56 -63 -54 -331 1
-227 2 -244 22 -270 11 -15 31 -33 44 -39 19 -10 416 -13 1827 -13 1780 0
1804 0 1832 20 48 34 51 55 48 334 l-3 258 -33 29 -32 29 -740 0 -740 0 0
1885 0 1885 28 0 c15 1 342 1 727 1 611 1 704 3 733 16 59 28 62 45 62 320 0
267 -2 279 -53 317 l-28 21 -1795 0 c-987 0 -1805 -3 -1818 -6z"/>
</g>
</svg>
