<?xml version="1.0" standalone="no"?>
<!DOCTYPE svg PUBLIC "-//W3C//DTD SVG 20010904//EN"
 "http://www.w3.org/TR/2001/REC-SVG-20010904/DTD/svg10.dtd">
<svg version="1.0" xmlns="http://www.w3.org/2000/svg"
 width="1024.000000pt" height="1024.000000pt" viewBox="0 0 1024.000000 1024.000000"
 preserveAspectRatio="xMidYMid meet">
<metadata>
Created by potrace 1.14, written by Peter Selinger 2001-2017
</metadata>
<g transform="translate(0.000000,1024.000000) scale(0.100000,-0.100000)"
fill="#000000" stroke="none">
<path d="M0 5120 l0 -5120 5120 0 5120 0 0 5120 0 5120 -5120 0 -5120 0 0
-5120z m3603 3384 c45 -23 76 -53 98 -96 18 -36 19 -71 19 -888 0 -817 -1
-852 -19 -888 -22 -43 -53 -73 -98 -96 -29 -14 -119 -16 -883 -16 -817 0 -852
1 -888 19 -43 22 -73 53 -96 98 -14 29 -16 119 -16 883 0 817 1 852 19 888 22
42 52 72 96 95 27 14 125 16 883 17 766 0 856 -2 885 -16z m4828 -19 c23 -16
53 -50 66 -74 l23 -44 0 -2047 0 -2047 -23 -44 c-13 -24 -43 -57 -66 -74 l-43
-30 -1062 -5 -1062 -5 -42 -28 c-23 -15 -54 -46 -69 -69 l-28 -42 -5 -1062 -5
-1062 -30 -43 c-16 -23 -50 -53 -74 -66 l-44 -23 -847 0 -847 0 -44 23 c-24
13 -57 43 -74 66 l-30 43 -5 1062 -5 1062 -28 42 c-15 23 -46 54 -69 69 l-42
28 -1062 5 -1062 5 -43 30 c-23 17 -53 50 -66 74 l-23 44 0 847 0 847 23 44
c13 24 43 58 66 74 l43 30 1062 5 1062 5 42 28 c23 15 54 46 69 69 l28 42 5
1062 5 1062 30 43 c17 23 50 53 74 66 l44 23 2058 -2 2057 -3 43 -30z m-4828
-4781 c45 -23 76 -53 98 -96 18 -36 19 -71 19 -888 0 -817 -1 -852 -19 -888
-22 -43 -53 -73 -98 -96 -29 -14 -119 -16 -883 -16 -817 0 -852 1 -888 19 -43
22 -73 53 -96 98 -14 29 -16 119 -16 883 0 817 1 852 19 888 22 42 52 72 96
95 27 14 125 16 883 17 766 0 856 -2 885 -16z m4800 0 c45 -23 76 -53 98 -96
18 -36 19 -71 19 -888 0 -817 -1 -852 -19 -888 -22 -43 -53 -73 -98 -96 -29
-14 -119 -16 -883 -16 -817 0 -852 1 -888 19 -43 22 -73 53 -96 98 -14 29 -16
119 -16 883 0 817 1 852 19 888 22 42 52 72 96 95 27 14 125 16 883 17 766 0
856 -2 885 -16z"/>
</g>
</svg>
