<svg xmlns="http://www.w3.org/2000/svg" viewBox="0 0 2048 1024"><defs><style>.a{fill:#262254;}.b{fill:#ec4176;}.c{fill:#ffa45e;}</style></defs><title>Artboard 20.4</title><rect class="a" x="-1" width="2049" height="1024"/><path class="b" d="M408,352.28V551.72A10.28,10.28,0,0,1,397.72,562H298.28A10.28,10.28,0,0,0,288,572.28v99.44A10.28,10.28,0,0,1,277.72,682H198.28A10.28,10.28,0,0,1,188,671.72V572.28A10.28,10.28,0,0,0,177.72,562H78.28A10.28,10.28,0,0,1,68,551.72V472.28A10.28,10.28,0,0,1,78.28,462h99.44A10.28,10.28,0,0,0,188,451.72V352.28A10.28,10.28,0,0,1,198.28,342H397.72A10.28,10.28,0,0,1,408,352.28Z"/><rect class="c" x="68" y="582" width="100" height="100" rx="10.28" ry="10.28"/><rect class="c" x="68" y="342" width="100" height="100" rx="10.28" ry="10.28"/><rect class="c" x="308" y="582" width="100" height="100" rx="10.28" ry="10.28"/><path class="b" d="M510.58,607V391.69H572.1V607Z"/><path class="b" d="M595.15,607V422.45l30.76-30.76H810.48v61.53H656.67V545.5H810.48L687.43,607Z"/><path class="b" d="M833.53,530.17V468.65h215.33v61.52Z"/><path class="b" d="M1148.76,584V453.22h-76.85V391.69h215.33v61.53h-77V707Z"/><path class="b" d="M1310.29,453.22V391.69h215.33v61.53Zm0,76.95V468.65h215.33v61.52Zm123,76.85-123-61.52h215.33V607Z"/><path class="b" d="M1579.43,607l-30.77-30.76V391.69H1641l123,61.53H1610.19V545.5H1764V607Z"/><path class="b" d="M1940.85,584V530.17h-92.28V607H1787V391.69h61.53v77h92.28v-77h61.53V707Z"/></svg>